# xmcd CD database file
#
# Track frame offsets:
#	150
#	15770
#	32677
#	50840
#	66827
#	84627
#	95977
#	113040
#	133515
#	141740
#
# Disc length: 2088 seconds
#
# Revision: 0
# Processed by: cddbd v1.5.2PL0 Copyright (c) Steve Scherf et al.
# Submitted via: CDex 1.51
#
DISCID=8d08260a
DTITLE=Janis Joplin - Pearl
DYEAR=1900
DGENRE=Blues
TTITLE0=Get it while you can
TTITLE1=Move over
TTITLE2=Cry baby
TTITLE3=A woman left lonely
TTITLE4=Half moon
TTITLE5=Buried alive in the blues
TTITLE6=My baby
TTITLE7=Me and Bobby McGee
TTITLE8=Mercedes Benz
TTITLE9=Trust me
EXTD=
EXTT0=
EXTT1=
EXTT2=
EXTT3=
EXTT4=
EXTT5=
EXTT6=
EXTT7=
EXTT8=
EXTT9=
PLAYORDER=
